<svg xmlns="http://www.w3.org/2000/svg" xmlns:xlink="http://www.w3.org/1999/xlink" width="91.294" height="91.294" viewBox="0 0 91.294 91.294"><defs><style>.a{fill:#323232;}.b{fill:#fff;}.c{filter:url(#a);}</style><filter id="a" x="0" y="0" width="91.294" height="91.294" filterUnits="userSpaceOnUse"><feOffset dy="3" input="SourceAlpha"/><feGaussianBlur stdDeviation="3" result="b"/><feFlood flood-opacity="0.161"/><feComposite operator="in" in2="b"/><feComposite in="SourceGraphic"/></filter></defs><g transform="translate(9 6)"><g class="c" transform="matrix(1, 0, 0, 1, -9, -6)"><ellipse class="a" cx="36.647" cy="36.647" rx="36.647" ry="36.647" transform="translate(9 6)"/></g><path class="b" d="M8.483,31.949c-2.082,0-3.6-1.935-5.107-4.091-3.01-4.313-4.74-11.426-2.018-16.113a8.059,8.059,0,0,1,6.775-4.07h.084A9.078,9.078,0,0,1,11.5,8.5a5.939,5.939,0,0,0,1.866.542,6.064,6.064,0,0,0,1.8-.534,10.488,10.488,0,0,1,3.759-.931c.178,0,.353.009.523.025a7.635,7.635,0,0,1,5.989,3.227.262.262,0,0,1-.074.368l-.026.016a6.867,6.867,0,0,0-3.272,5.744,6.682,6.682,0,0,0,4.076,6.114l.01,0,.01,0a.261.261,0,0,1,.14.321l-.009.029a17.516,17.516,0,0,1-2.217,4.505c-1.271,1.842-2.711,3.931-5.059,3.975h-.1a5.753,5.753,0,0,1-2.454-.608l-.007,0a6.15,6.15,0,0,0-2.672-.639,6.53,6.53,0,0,0-2.808.66,6.342,6.342,0,0,1-2.37.627ZM13.432,7.778c-.114,0-.229,0-.341-.013a.265.265,0,0,1-.241-.227A6.8,6.8,0,0,1,14.593,2.47,7.375,7.375,0,0,1,19.447,0h.01a.267.267,0,0,1,.263.234,7.166,7.166,0,0,1-1.707,5.213A6.233,6.233,0,0,1,13.432,7.778Z" transform="translate(23.492 19.733)"/></g></svg>