<svg xmlns="http://www.w3.org/2000/svg" xmlns:xlink="http://www.w3.org/1999/xlink" width="91.294" height="91.294" viewBox="0 0 91.294 91.294"><defs><style>.a{fill:#da483f;}.b{fill:#fff;}.c{filter:url(#a);}</style><filter id="a" x="0" y="0" width="91.294" height="91.294" filterUnits="userSpaceOnUse"><feOffset dy="3" input="SourceAlpha"/><feGaussianBlur stdDeviation="3" result="b"/><feFlood flood-opacity="0.161"/><feComposite operator="in" in2="b"/><feComposite in="SourceGraphic"/></filter></defs><g transform="translate(9 6)"><g class="c" transform="matrix(1, 0, 0, 1, -9, -6)"><circle class="a" cx="36.647" cy="36.647" r="36.647" transform="translate(9 6)"/></g><path class="b" d="M11.627,22.552a11.735,11.735,0,0,1-8.221-3.3,11.038,11.038,0,0,1,0-15.947,11.888,11.888,0,0,1,16.066-.348L16.045,6.208a6.976,6.976,0,0,0-4.418-1.57,6.751,6.751,0,0,0-6.844,6.637,6.751,6.751,0,0,0,6.844,6.637,6.879,6.879,0,0,0,6.4-4.282H11.48V8.921H23A11.041,11.041,0,0,1,19.848,19.25,11.735,11.735,0,0,1,11.627,22.552ZM32.6,16.057H29.656V12.132H25.609V9.277h4.047V5.352H32.6V9.277h4.047v2.854H32.6v3.925Z" transform="translate(18.793 25.371)"/></g></svg>