<svg xmlns="http://www.w3.org/2000/svg" xmlns:xlink="http://www.w3.org/1999/xlink" width="34" height="34" viewBox="0 0 34 34"><defs><style>.a{fill:url(#a);}.b{fill:#fff;}</style><linearGradient id="a" x1="0.5" x2="0.5" y2="1" gradientUnits="objectBoundingBox"><stop offset="0" stop-color="#0bb0b9"/><stop offset="1" stop-color="#06585d"/></linearGradient></defs><g transform="translate(-31 -110)"><g transform="translate(-219 -159)"><circle class="a" cx="17" cy="17" r="17" transform="translate(250 269)"/></g><g transform="translate(21.764 10.165)"><g transform="translate(17 109)"><path class="b" d="M267.677,290.278a1.348,1.348,0,0,0-1.229,1.363v7.276a3.837,3.837,0,0,1-1.19,2.834,3.886,3.886,0,0,1-2.834,1.19,3.782,3.782,0,0,1-2.784-1.19,3.851,3.851,0,0,1-1.215-2.834v-1.839a1.315,1.315,0,0,0-1.315-1.315h0a1.312,1.312,0,0,0-1.312,1.312v1.643a6.65,6.65,0,0,0,1.893,4.827,6.753,6.753,0,0,0,9.49,0,6.65,6.65,0,0,0,1.893-4.827v-7.129A1.315,1.315,0,0,0,267.677,290.278Z" transform="translate(-250.839 -290.276)"/><path class="b" d="M211.714,305.514a1.348,1.348,0,0,0,1.229-1.363v-7.276a3.837,3.837,0,0,1,1.19-2.834,3.886,3.886,0,0,1,2.834-1.19,3.782,3.782,0,0,1,2.784,1.19,3.851,3.851,0,0,1,1.215,2.834v1.839a1.315,1.315,0,0,0,1.315,1.315h0a1.312,1.312,0,0,0,1.312-1.312v-1.643a6.65,6.65,0,0,0-1.893-4.827,6.753,6.753,0,0,0-9.49,0,6.65,6.65,0,0,0-1.893,4.827V304.2A1.315,1.315,0,0,0,211.714,305.514Z" transform="translate(-210.316 -290.297)"/></g></g></g></svg>