<svg id="Capa_1" data-name="Capa 1" xmlns="http://www.w3.org/2000/svg" xmlns:xlink="http://www.w3.org/1999/xlink" viewBox="0 0 1938.38 319.18"><defs><style>.cls-1{fill:none;}.cls-2{clip-path:url(#clip-path);}.cls-3{fill:url(#Degradado_sin_nombre_7);}.cls-4{clip-path:url(#clip-path-2);}.cls-5{fill:url(#Degradado_sin_nombre_7-2);}.cls-6{fill:#434343;}</style><clipPath id="clip-path"><path class="cls-1" d="M318.89,45.51c-11.17.7-19.59,10.53-19.59,21.72V183.17c0,17.63-6.2,32.41-19,45.16-12.58,12.58-27.77,19-45.16,19-17.1,0-31.61-6.2-44.37-19-13-13-19.35-27.79-19.35-45.16V153.86a20.94,20.94,0,0,0-41.87-.05V180c0,30.61,10.15,56.49,30.17,76.92,20.18,20.6,45.55,31.05,75.42,31.05,30.13,0,55.64-10.45,75.81-31.05,20-20.43,30.17-46.31,30.17-76.92V66.4a21,21,0,0,0-20.93-20.93c-.44,0-.89,0-1.34,0"/></clipPath><linearGradient id="Degradado_sin_nombre_7" x1="-5167.75" y1="-4912.23" x2="-5166.01" y2="-4912.23" gradientTransform="matrix(0, 577.12, 577.12, 0, 2835158.77, 2981866.91)" gradientUnits="userSpaceOnUse"><stop offset="0" stop-color="#00bbc4"/><stop offset="0.49" stop-color="#9dd7d5"/><stop offset="1" stop-color="#00627c"/></linearGradient><clipPath id="clip-path-2"><path class="cls-1" d="M80.73,71.48c-20,20.44-30.17,46.32-30.17,76.93V262A21,21,0,0,0,72.83,282.9c11.17-.71,19.59-10.53,19.59-21.72V145.24c0-17.64,6.21-32.41,19-45.17,12.58-12.58,27.78-19,45.16-19,17.1,0,31.62,6.2,44.37,19,13,13,19.36,27.8,19.36,45.17v29.3a20.93,20.93,0,1,0,41.86.05V148.41c0-30.61-10.15-56.49-30.17-76.93-20.18-20.6-45.55-31-75.42-31-30.12,0-55.63,10.44-75.81,31"/></clipPath><linearGradient id="Degradado_sin_nombre_7-2" x1="-5167.75" y1="-4912.22" x2="-5166.01" y2="-4912.22" gradientTransform="matrix(0, 577.12, 577.12, 0, 2835072.97, 2981939.75)" xlink:href="#Degradado_sin_nombre_7"/></defs><title>logo</title><g class="cls-2"><rect class="cls-3" x="89.94" y="31.96" width="290.87" height="269.51" transform="translate(10.96 347.92) rotate(-74.23)"/></g><g class="cls-4"><rect class="cls-5" x="10.56" y="27.19" width="291.56" height="269.71" transform="translate(-42.1 268.47) rotate(-74.23)"/></g><path class="cls-6" d="M1238.92,256.44a76.59,76.59,0,0,1-25.56,15.22,79.1,79.1,0,0,1-27.79,4.51,82.16,82.16,0,0,1-30.63-6.18,77,77,0,0,1-24.45-16.05,73.76,73.76,0,0,1-16.18-23.61,72.3,72.3,0,0,1-5.84-29,73.89,73.89,0,0,1,22-53.07,76.1,76.1,0,0,1,24.45-16,79.32,79.32,0,0,1,30.63-5.84,84.85,84.85,0,0,1,27.65,4.72,76.62,76.62,0,0,1,25.56,15l-14.86,15.56a50.28,50.28,0,0,0-17-10.49,59.45,59.45,0,0,0-21.05-3.68,55.29,55.29,0,0,0-20.21,3.75,51.33,51.33,0,0,0-17,10.77A52.06,52.06,0,0,0,1136.88,179a54.75,54.75,0,0,0-4.38,22.3,54,54,0,0,0,4.45,22.3,51.34,51.34,0,0,0,28.83,27.58,55,55,0,0,0,20.07,3.75q23.76,0,38.21-14Z"/><path class="cls-6" d="M1380.9,252.14a68.73,68.73,0,0,1-12.51,9.79,86.24,86.24,0,0,1-15,7.36,92.8,92.8,0,0,1-16.39,4.52,94.52,94.52,0,0,1-16.81,1.53,69.8,69.8,0,0,1-19.17-2.57,44,44,0,0,1-15.77-8,38,38,0,0,1-10.7-14q-4-8.61-4-20.84,0-11.67,5.77-19.17a40.24,40.24,0,0,1,15.42-12,78.79,78.79,0,0,1,22.16-6.18,187.18,187.18,0,0,1,25.84-1.74q3.88,0,8.89.14l10.35.28q5.34.14,10.49.35c3.42.14,6.57.2,9.44.2V174.2a24.91,24.91,0,0,0-2.91-10.42,26.29,26.29,0,0,0-7.85-8.82,41.89,41.89,0,0,0-13-6.11,64.64,64.64,0,0,0-18.2-2.3,55.53,55.53,0,0,0-15.08,2,49.38,49.38,0,0,0-12.57,5.35,29.37,29.37,0,0,0-8.61,7.78,15.53,15.53,0,0,0-3.2,9.17h-24.45a36,36,0,0,1,5.42-18.48,46.39,46.39,0,0,1,13.75-14,67.72,67.72,0,0,1,20-8.89,91.26,91.26,0,0,1,24.31-3.13q16.67,0,29.17,3.75a64.2,64.2,0,0,1,20.84,10.14A41.55,41.55,0,0,1,1399,155.17a40.38,40.38,0,0,1,4.09,17.78v99.19h-20ZM1328.11,256a70.35,70.35,0,0,0,31.25-7.64,53.56,53.56,0,0,0,12.23-8.62,27.66,27.66,0,0,0,7.36-11V209.21q-3.89,0-8.54-.14l-9.59-.28-9.58-.28q-4.66-.13-8.55-.13a157.17,157.17,0,0,0-16.74.9,66.2,66.2,0,0,0-15.21,3.33,28.89,28.89,0,0,0-11.11,6.81,15.42,15.42,0,0,0-4.31,11.32,24.8,24.8,0,0,0,2.57,11.88,22.19,22.19,0,0,0,6.95,7.85,27.76,27.76,0,0,0,10.35,4.31A63.22,63.22,0,0,0,1328.11,256Z"/><path class="cls-6" d="M1540.1,151.83h-15.56a58.66,58.66,0,0,0-19.8,3.2,40.2,40.2,0,0,0-15.28,9.58,44.49,44.49,0,0,0-9.86,15.77,61.82,61.82,0,0,0-3.54,21.88v69.88h-24V130.44h19.87l2.5,21.95a51.79,51.79,0,0,1,8.54-8.75,53.62,53.62,0,0,1,11.12-6.95,65.68,65.68,0,0,1,13.54-4.58,71.74,71.74,0,0,1,15.84-1.67h16.67Z"/><path class="cls-6" d="M1567.74,201.29a76.86,76.86,0,0,1,5.56-29.24,71.6,71.6,0,0,1,39.38-39.8,77.32,77.32,0,0,1,30.36-5.84,74.69,74.69,0,0,1,17,1.88,72.12,72.12,0,0,1,15,5.21,69,69,0,0,1,12.78,7.91,71.29,71.29,0,0,1,10.42,10V76.54h24.18v195.6h-21l-1.81-22.92a69.54,69.54,0,0,1-10.35,10.63,68.38,68.38,0,0,1-13.06,8.54,74.91,74.91,0,0,1-15.35,5.7,70.18,70.18,0,0,1-17.37,2.08,77.76,77.76,0,0,1-30.42-5.83,73.41,73.41,0,0,1-24-16,72.66,72.66,0,0,1-15.7-23.76A76,76,0,0,1,1567.74,201.29Zm24,0a54.11,54.11,0,0,0,4.23,21.54,52.16,52.16,0,0,0,28.62,28.2,56.26,56.26,0,0,0,41.82,0,52.24,52.24,0,0,0,28.62-28.2,56.58,56.58,0,0,0,0-42.93,52.62,52.62,0,0,0-11.54-17,54,54,0,0,0-38-15.35,54.73,54.73,0,0,0-21,4,52.18,52.18,0,0,0-17.09,11.25,52.85,52.85,0,0,0-11.46,17A54.38,54.38,0,0,0,1591.78,201.29Z"/><path class="cls-6" d="M1773.76,242A94.6,94.6,0,0,0,1798,252.83a85.5,85.5,0,0,0,22.44,3.2q20.41,0,30.84-6.39t10.42-17.23a15.7,15.7,0,0,0-2.92-9.72,22.16,22.16,0,0,0-8.47-6.53,66.09,66.09,0,0,0-13.48-4.45q-7.92-1.8-18.06-3.33-5.41-.7-11.25-1.81a95.23,95.23,0,0,1-11.46-2.92,64.65,64.65,0,0,1-10.7-4.51,34.08,34.08,0,0,1-8.89-6.81,31.74,31.74,0,0,1-6.11-9.65,34.09,34.09,0,0,1-2.29-13.06,42.69,42.69,0,0,1,3.26-16.6,35.27,35.27,0,0,1,10.42-13.76q7.15-5.89,18.62-9.38t27.71-3.47a103.23,103.23,0,0,1,29.59,4.1,138.35,138.35,0,0,1,24.87,9.93l-7,18.9q-4.58-2.22-10-4.59a105.47,105.47,0,0,0-11.39-4.17,116.34,116.34,0,0,0-12.37-3,71.42,71.42,0,0,0-13-1.18,62.91,62.91,0,0,0-17.23,2,33.34,33.34,0,0,0-11.18,5.28,19.07,19.07,0,0,0-6,7.36,20.4,20.4,0,0,0-1.8,8.27q0,9.45,9.86,14.24t29.73,6.74q9.45,1.38,19.38,3.47a65.7,65.7,0,0,1,18,6.46,38.3,38.3,0,0,1,13.2,11.67q5.13,7.29,5.14,19a39.48,39.48,0,0,1-4.52,19,40.36,40.36,0,0,1-13,14.23,64.6,64.6,0,0,1-20.49,9,107.66,107.66,0,0,1-27,3.12,133.91,133.91,0,0,1-29.52-3.12A90,90,0,0,1,1766.4,262Z"/><path class="cls-6" d="M534.29,278.67q-27.27,0-40-18.84-11.13-16.54-11.13-44.38V42.92a10.16,10.16,0,0,1,4.13-8.64,15.26,15.26,0,0,1,9.28-3.07A15.54,15.54,0,0,1,506,34.28a10.07,10.07,0,0,1,4.21,8.64V215.45a106.38,106.38,0,0,0,1.64,19.19q1.63,8.93,6.85,14.42t15.63,5.49q7.28,0,10.84,3.78a11.94,11.94,0,0,1,3.57,8.35,11.77,11.77,0,0,1-3.57,8.21Q541.56,278.67,534.29,278.67Z"/><path class="cls-6" d="M604.34,97.29a15.11,15.11,0,0,1-15.12-15.13,14.8,14.8,0,0,1,4.42-10.77,14.46,14.46,0,0,1,10.7-4.5,14.62,14.62,0,0,1,10.85,4.5,14.8,14.8,0,0,1,4.42,10.77,14.55,14.55,0,0,1-4.42,10.7A14.75,14.75,0,0,1,604.34,97.29Zm0,181.38a15.5,15.5,0,0,1-9.2-3,9.86,9.86,0,0,1-4.21-8.56V135.82a10.07,10.07,0,0,1,4.21-8.64,15.29,15.29,0,0,1,9.2-3.06,15.53,15.53,0,0,1,9.35,3.06,10.07,10.07,0,0,1,4.21,8.64V267.11a9.86,9.86,0,0,1-4.21,8.56A15.74,15.74,0,0,1,604.34,278.67Z"/><path class="cls-6" d="M1013.33,278.81a11.67,11.67,0,0,1-8.85-4l-58.8-63.08-21.12,19.84v35.53a9.9,9.9,0,0,1-4.21,8.49,15.28,15.28,0,0,1-9.2,3.07,15.46,15.46,0,0,1-9.35-3.07,9.9,9.9,0,0,1-4.21-8.49V42.77a9.87,9.87,0,0,1,4.21-8.56,15.72,15.72,0,0,1,9.35-3,15.54,15.54,0,0,1,9.2,3,9.87,9.87,0,0,1,4.21,8.56V199.9l77.21-72.5a11.46,11.46,0,0,1,16,.21,11.3,11.3,0,0,1-.29,16.49L963.52,195l59.65,64.22a10.81,10.81,0,0,1,3.14,7.71,10.56,10.56,0,0,1-4,8.56A13.79,13.79,0,0,1,1013.33,278.81Z"/><path class="cls-6" d="M703.9,278.54a12.82,12.82,0,0,1-12.83-12.77c-.05-11-.2-22.17-.35-32.93-.31-21.69-.62-44.12-.09-67.24.36-15.57,9.4-29.5,25.45-39.22a88.37,88.37,0,0,1,44.64-12.14h.95c14.7.17,30,4.08,42,10.74,15.37,8.56,24.43,21.14,25.52,35.43,3.09,40.54,3.17,73.38,3.24,105.15a12.84,12.84,0,0,1-12.8,12.85h0a12.82,12.82,0,0,1-12.82-12.8c-.07-31.29-.15-63.66-3.17-103.25-1-12.6-23.07-22.25-42.19-22.47-20.62-.3-44.76,11.2-45.1,26.29-.53,22.64-.21,44.83.09,66.29.15,10.83.3,22,.35,33.18A12.81,12.81,0,0,1,704,278.54Z"/></svg>