<svg xmlns="http://www.w3.org/2000/svg" width="58" height="41" viewBox="0 0 58 41"><defs><style>.a{fill:#fff;}.b{fill:#1dbdc6;}</style></defs><g transform="translate(-158 -549)"><rect class="a" width="58" height="41" rx="8" transform="translate(158 549)"/><g transform="translate(193.612 557.381)"><path class="b" d="M265.405,290.278a1.091,1.091,0,0,0-.994,1.1v5.884a3.1,3.1,0,0,1-.962,2.292,3.143,3.143,0,0,1-2.292.962,3.059,3.059,0,0,1-2.252-.962,3.115,3.115,0,0,1-.982-2.292v-1.488a1.063,1.063,0,0,0-1.063-1.063h0a1.061,1.061,0,0,0-1.061,1.061V297.1a5.379,5.379,0,0,0,1.531,3.9,5.462,5.462,0,0,0,7.676,0,5.378,5.378,0,0,0,1.531-3.9v-5.766A1.063,1.063,0,0,0,265.405,290.278Z" transform="translate(-251.787 -290.276)"/><path class="b" d="M211.446,302.605a1.09,1.09,0,0,0,.994-1.1v-5.884a3.1,3.1,0,0,1,.962-2.292,3.143,3.143,0,0,1,2.292-.962,3.059,3.059,0,0,1,2.252.962,3.115,3.115,0,0,1,.982,2.292v1.488a1.063,1.063,0,0,0,1.064,1.063h0a1.061,1.061,0,0,0,1.061-1.061V295.78a5.378,5.378,0,0,0-1.531-3.9,5.462,5.462,0,0,0-7.676,0,5.378,5.378,0,0,0-1.531,3.9v5.766A1.063,1.063,0,0,0,211.446,302.605Z" transform="translate(-210.316 -290.298)"/></g></g></svg>