<svg width="40" height="40" viewBox="0 0 40 40" fill="none" xmlns="http://www.w3.org/2000/svg">
<path d="M16.418 18.3711C16.7578 18.125 16.9219 17.7188 16.9219 17.1602C16.9336 16.8945 16.8789 16.6328 16.7617 16.3945C16.6562 16.2031 16.5 16.043 16.3086 15.9297C16.1101 15.8093 15.8897 15.7297 15.6602 15.6953C15.4102 15.6484 15.1562 15.625 14.9062 15.6289H12.1602V18.7422H15.1328C15.6445 18.7461 16.0781 18.6211 16.418 18.3711ZM16.8789 21.1836C16.4961 20.8906 15.9844 20.7461 15.3477 20.7461H12.1523V24.418H15.2852C15.5781 24.418 15.8477 24.3906 16.1094 24.3359C16.357 24.2875 16.593 24.192 16.8047 24.0547C17.0039 23.9258 17.1641 23.75 17.2852 23.5234C17.4023 23.2969 17.4609 23.0078 17.4609 22.6602C17.4609 21.9687 17.2656 21.4805 16.8789 21.1836ZM20 2.5C10.3359 2.5 2.5 10.3359 2.5 20C2.5 29.6641 10.3359 37.5 20 37.5C29.6641 37.5 37.5 29.6641 37.5 20C37.5 10.3359 29.6641 2.5 20 2.5ZM23.3789 13.707H28.7852V15.0234H23.3789V13.707ZM20 24.5625C19.7471 25.0425 19.3861 25.4571 18.9453 25.7734C18.4844 26.0938 17.9727 26.3281 17.4297 26.4648C16.8616 26.6171 16.2756 26.692 15.6875 26.6875H9.21875V13.3633H15.5078C16.1445 13.3633 16.7227 13.4219 17.25 13.5312C17.7734 13.6406 18.2188 13.8281 18.5938 14.082C18.9648 14.3359 19.2578 14.6758 19.4648 15.0977C19.668 15.5156 19.7734 16.0391 19.7734 16.6602C19.7734 17.332 19.6211 17.8867 19.3164 18.3359C19.0078 18.7852 18.5625 19.1484 17.957 19.4336C18.7812 19.668 19.3867 20.0859 19.7852 20.6719C20.1914 21.2656 20.3906 21.9766 20.3906 22.8125C20.3906 23.4922 20.2617 24.0742 20 24.5625ZM30.8906 22.5H23.9219C23.9219 23.2578 24.1836 23.9844 24.5781 24.375C24.9766 24.7617 25.5469 24.957 26.293 24.957C26.832 24.957 27.2891 24.8203 27.6797 24.5508C28.0664 24.2812 28.3008 23.9961 28.3867 23.6992H30.7227C30.3477 24.8594 29.7773 25.6875 29.0039 26.1875C28.2383 26.6875 27.3008 26.9375 26.2109 26.9375C25.4492 26.9375 24.7656 26.8125 24.1523 26.5742C23.5625 26.3438 23.0312 25.9922 22.5938 25.5391C22.1624 25.0737 21.829 24.5264 21.6133 23.9297C21.375 23.2695 21.2578 22.5742 21.2656 21.875C21.2656 21.1523 21.3867 20.4805 21.6211 19.8555C22.0703 18.6406 23.0039 17.668 24.1953 17.1641C24.832 16.8984 25.5156 16.7656 26.207 16.7734C27.0273 16.7734 27.7383 16.9297 28.3555 17.25C28.9496 17.5559 29.4655 17.9942 29.8633 18.5312C30.2578 19.0664 30.5352 19.6758 30.7109 20.3633C30.8789 21.0391 30.9375 21.75 30.8906 22.5ZM26.125 18.7656C25.7031 18.7656 25.3477 18.8398 25.0742 18.9844C24.8008 19.1289 24.5742 19.3086 24.4023 19.5156C24.2387 19.7155 24.1177 19.9468 24.0469 20.1953C23.9844 20.4023 23.9414 20.6133 23.9258 20.8281H28.2422C28.1797 20.1523 27.9453 19.6523 27.6328 19.3008C27.3047 18.9531 26.7773 18.7656 26.125 18.7656Z" fill="#7ECED5"/>
</svg>
