<svg width="40" height="40" viewBox="0 0 40 40" fill="none" xmlns="http://www.w3.org/2000/svg">
<g clip-path="url(#clip0)">
<path d="M20 0.75C9.4125 0.75 0.75 9.4125 0.75 20C0.75 30.5875 9.4125 39.25 20 39.25C30.5875 39.25 39.25 30.5875 39.25 20C39.25 9.4125 30.5875 0.75 20 0.75ZM12.9394 24.8125C11.9748 24.8437 11.0231 24.5842 10.2079 24.0676C9.39271 23.5511 8.75165 22.8014 8.36796 21.9158C7.98427 21.0303 7.87568 20.0499 8.0563 19.1018C8.23692 18.1538 8.6984 17.282 9.38082 16.5996C10.0632 15.9171 10.9351 15.4557 11.8831 15.2751C12.8311 15.0944 13.8116 15.203 14.6971 15.5867C15.5826 15.9704 16.3323 16.6115 16.8489 17.4267C17.3654 18.2419 17.625 19.1935 17.5938 20.1581C17.5542 21.38 17.0512 22.541 16.1867 23.4055C15.3223 24.2699 14.1612 24.773 12.9394 24.8125ZM27.3769 24.8125C26.4123 24.8437 25.4606 24.5842 24.6454 24.0676C23.8302 23.5511 23.1891 22.8014 22.8055 21.9158C22.4218 21.0303 22.3132 20.0499 22.4938 19.1018C22.6744 18.1538 23.1359 17.282 23.8183 16.5996C24.5007 15.9171 25.3726 15.4557 26.3206 15.2751C27.2686 15.0944 28.2491 15.203 29.1346 15.5867C30.0201 15.9704 30.7698 16.6115 31.2864 17.4267C31.8029 18.2419 32.0625 19.1935 32.0312 20.1581C31.9917 21.38 31.4887 22.541 30.6242 23.4055C29.7598 24.2699 28.5987 24.773 27.3769 24.8125Z" fill="#7ECED5"/>
</g>
<defs>
<clipPath id="clip0">
<rect width="40" height="40" fill="white"/>
</clipPath>
</defs>
</svg>
