<svg width="40" height="40" viewBox="0 0 40 40" fill="none" xmlns="http://www.w3.org/2000/svg">
<path d="M25.9998 20C25.9998 21.5913 25.3677 23.1174 24.2424 24.2426C23.1172 25.3678 21.5911 26 19.9998 26C18.4085 26 16.8824 25.3678 15.7572 24.2426C14.6319 23.1174 13.9998 21.5913 13.9998 20C13.9998 19.658 14.0358 19.324 14.0978 19H11.9998V26.994C11.9998 27.55 12.4498 28 13.0058 28H26.9958C27.2623 27.9995 27.5176 27.8932 27.7059 27.7046C27.8941 27.516 27.9998 27.2605 27.9998 26.994V19H25.9018C25.9638 19.324 25.9998 19.658 25.9998 20ZM19.9998 24C20.5252 23.9999 21.0455 23.8962 21.5308 23.695C22.0162 23.4939 22.4572 23.199 22.8286 22.8274C23.2001 22.4558 23.4947 22.0147 23.6956 21.5292C23.8966 21.0437 23.9999 20.5234 23.9998 19.998C23.9997 19.4726 23.8961 18.9523 23.6949 18.4669C23.4937 17.9816 23.1989 17.5406 22.8272 17.1691C22.4556 16.7977 22.0145 16.5031 21.529 16.3022C21.0435 16.1012 20.5232 15.9979 19.9978 15.998C18.9367 15.9983 17.9191 16.42 17.169 17.1706C16.4188 17.9211 15.9975 18.9389 15.9978 20C15.9981 21.0611 16.4199 22.0787 17.1704 22.8288C17.9209 23.579 18.9387 24.0003 19.9998 24ZM24.7998 15.8H27.1978C27.3571 15.8 27.5099 15.7368 27.6228 15.6244C27.7356 15.5119 27.7993 15.3593 27.7998 15.2V12.802C27.7998 12.6423 27.7364 12.4892 27.6235 12.3763C27.5106 12.2634 27.3575 12.2 27.1978 12.2H24.7998C24.6401 12.2 24.487 12.2634 24.3741 12.3763C24.2612 12.4892 24.1978 12.6423 24.1978 12.802V15.2C24.1998 15.53 24.4698 15.8 24.7998 15.8ZM19.9998 0.799988C14.9076 0.799988 10.0241 2.82284 6.42335 6.42354C2.82266 10.0242 0.799805 14.9078 0.799805 20C0.799805 25.0921 2.82266 29.9757 6.42335 33.5764C10.0241 37.1771 14.9076 39.2 19.9998 39.2C22.5212 39.2 25.0179 38.7034 27.3473 37.7385C29.6768 36.7736 31.7934 35.3593 33.5763 33.5764C35.3591 31.7936 36.7734 29.677 37.7383 27.3475C38.7032 25.0181 39.1998 22.5214 39.1998 20C39.1998 17.4786 38.7032 14.9819 37.7383 12.6525C36.7734 10.323 35.3591 8.20642 33.5763 6.42354C31.7934 4.64065 29.6768 3.22639 27.3473 2.2615C25.0179 1.29661 22.5212 0.799988 19.9998 0.799988ZM29.9998 27.778C29.9998 29 28.9998 30 27.7778 30H12.2218C10.9998 30 9.9998 29 9.9998 27.778V12.222C9.9998 11 10.9998 9.99999 12.2218 9.99999H27.7778C28.9998 9.99999 29.9998 11 29.9998 12.222V27.778Z" fill="#7ECED5"/>
</svg>
