<svg width="40" height="40" viewBox="0 0 40 40" fill="none" xmlns="http://www.w3.org/2000/svg">
<circle cx="20" cy="20" r="20" fill="#7ECED5"/>
<g clip-path="url(#clip0)">
<g clip-path="url(#clip1)">
<path d="M30.8155 16.8733C30.9901 16.7346 31.2497 16.8644 31.2497 17.0837V26.2369C31.2497 27.4231 30.2874 28.3854 29.1012 28.3854H10.4814C9.29533 28.3854 8.33301 27.4231 8.33301 26.2369V17.0882C8.33301 16.8644 8.58813 16.7391 8.76717 16.8778C9.76978 17.6566 11.0991 18.6458 15.6646 21.9624C16.609 22.6517 18.2024 24.1019 19.7913 24.093C21.3892 24.1064 23.014 22.6249 23.9226 21.9624C28.488 18.6458 29.8129 17.6521 30.8155 16.8733ZM19.7913 22.6562C20.8298 22.6741 22.3247 21.3492 23.0767 20.8032C29.0162 16.4929 29.4683 16.1169 30.8379 15.0427C31.0975 14.8413 31.2497 14.528 31.2497 14.1967V13.3463C31.2497 12.1602 30.2874 11.1979 29.1012 11.1979H10.4814C9.29533 11.1979 8.33301 12.1602 8.33301 13.3463V14.1967C8.33301 14.528 8.48519 14.8368 8.74479 15.0427C10.1144 16.1124 10.5665 16.4929 16.506 20.8032C17.258 21.3492 18.7529 22.6741 19.7913 22.6562Z" fill="white"/>
</g>
</g>
<defs>
<clipPath id="clip0">
<rect width="22.9167" height="22.9167" fill="white" transform="translate(8.33301 8.33331)"/>
</clipPath>
<clipPath id="clip1">
<rect width="22.9167" height="22.9167" fill="white" transform="translate(8.33301 8.33331)"/>
</clipPath>
</defs>
</svg>
