<svg width="40" height="40" viewBox="0 0 40 40" fill="none" xmlns="http://www.w3.org/2000/svg">
<circle cx="20" cy="20" r="20" fill="#7ECED5"/>
<g clip-path="url(#clip0)">
<g clip-path="url(#clip1)">
<path d="M30.4166 9.42481L25.7617 8.35993C25.2559 8.24456 24.7367 8.50635 24.5308 8.97667L22.3824 13.9461C22.1944 14.381 22.3197 14.8912 22.6912 15.1885L25.4036 17.3893C23.7923 20.7924 20.9769 23.6233 17.4723 25.2516L15.2523 22.5628C14.9479 22.1945 14.4376 22.0703 13.999 22.2567L8.98598 24.3864C8.50706 24.595 8.24298 25.1097 8.35935 25.611L9.43357 30.2255C9.54547 30.7047 9.97516 31.0508 10.4809 31.0508C21.9437 31.0508 31.2492 21.844 31.2492 10.4631C31.2492 9.96613 30.9045 9.53574 30.4166 9.42481Z" fill="white"/>
</g>
</g>
<defs>
<clipPath id="clip0">
<rect width="22.9167" height="22.9167" fill="white" transform="translate(8.33301 8.33331)"/>
</clipPath>
<clipPath id="clip1">
<rect width="22.9167" height="22.7175" fill="white" transform="translate(8.33301 8.33331)"/>
</clipPath>
</defs>
</svg>
