<svg width="40" height="40" viewBox="0 0 40 40" fill="none" xmlns="http://www.w3.org/2000/svg">
<g clip-path="url(#clip0)">
<path d="M20.0039 0.75C9.37344 0.75 0.753906 9.36953 0.753906 20C0.753906 27.8805 5.49765 34.6523 12.2781 37.6344C12.2266 36.2938 12.2695 34.6781 12.6133 33.2172C12.9828 31.6531 15.0883 22.7242 15.0883 22.7242C15.0883 22.7242 14.4695 21.4953 14.4695 19.682C14.4695 16.8289 16.1195 14.6977 18.182 14.6977C19.9352 14.6977 20.7773 16.0125 20.7773 17.5852C20.7773 19.3469 19.6516 21.9766 19.0758 24.4172C18.5945 26.4625 20.0984 28.1211 22.118 28.1211C25.7617 28.1211 28.2195 23.4375 28.2195 17.8859C28.2195 13.6664 25.375 10.5125 20.2102 10.5125C14.375 10.5125 10.7312 14.8695 10.7312 19.7336C10.7312 21.4094 11.2297 22.5953 12.0031 23.5062C12.3555 23.9273 12.407 24.0992 12.2781 24.5805C12.1836 24.9328 11.9773 25.7836 11.8828 26.1273C11.7539 26.6172 11.3586 26.7891 10.9203 26.6086C8.23047 25.5086 6.97578 22.5695 6.97578 19.2523C6.97578 13.7867 11.5906 7.22969 20.7344 7.22969C28.082 7.22969 32.9203 12.5492 32.9203 18.2555C32.9203 25.8094 28.718 31.4469 22.5305 31.4469C20.4508 31.4469 18.5 30.3211 17.8297 29.0492C17.8297 29.0492 16.7125 33.4836 16.4719 34.343C16.068 35.8297 15.2687 37.3078 14.5383 38.468C16.3102 38.9907 18.1479 39.2569 19.9953 39.2586C30.6258 39.2586 39.2453 30.6391 39.2453 20.0086C39.2453 9.37813 30.6344 0.75 20.0039 0.75Z" fill="#7ECED5"/>
</g>
<defs>
<clipPath id="clip0">
<rect width="40" height="40" fill="white"/>
</clipPath>
</defs>
</svg>
