<svg width="40" height="40" viewBox="0 0 40 40" fill="none" xmlns="http://www.w3.org/2000/svg">
<rect x="1" width="39" height="39" rx="19.5" fill="#7ECED5"/>
<path d="M31.6364 10H10.3636C9.06364 10 8 11.035 8 12.3V26.1C8 27.365 9.06364 28.4 10.3636 28.4H18.6364V30.7H17.4545C16.8045 30.7 16.2727 31.2175 16.2727 31.85C16.2727 32.4825 16.8045 33 17.4545 33H24.5455C25.1955 33 25.7273 32.4825 25.7273 31.85C25.7273 31.2175 25.1955 30.7 24.5455 30.7H23.3636V28.4H31.6364C32.9364 28.4 34 27.365 34 26.1V12.3C34 11.035 32.9364 10 31.6364 10ZM30.4545 26.1H11.5455C10.8955 26.1 10.3636 25.5825 10.3636 24.95V13.45C10.3636 12.8175 10.8955 12.3 11.5455 12.3H30.4545C31.1045 12.3 31.6364 12.8175 31.6364 13.45V24.95C31.6364 25.5825 31.1045 26.1 30.4545 26.1Z" fill="white"/>
</svg>
