<svg width="40" height="40" viewBox="0 0 40 40" fill="none" xmlns="http://www.w3.org/2000/svg">
<rect x="1" width="39" height="39" rx="19.5" fill="#7ECED5"/>
<path d="M31.1186 21.5883C31.2468 20.8833 31.3155 20.1627 31.3155 19.442C31.3155 17.8441 31.003 16.2931 30.3873 14.8362C29.7935 13.4262 28.9402 12.1604 27.8557 11.0732C26.7803 9.9923 25.5054 9.13139 24.1021 8.53841C22.6457 7.92117 21.1018 7.60785 19.5078 7.60785C18.7577 7.60785 18.0045 7.67991 17.2732 7.8209C16.2612 7.28332 15.1336 7.00152 13.9884 7C12.1225 7 10.3661 7.73004 9.04715 9.05226C8.39633 9.70137 7.88031 10.4734 7.52893 11.3236C7.17755 12.1739 6.99778 13.0855 7.00002 14.0059C7.00002 15.1965 7.30631 16.3683 7.87825 17.4023C7.76261 18.0728 7.70011 18.759 7.70011 19.442C7.70011 21.04 8.01265 22.5909 8.62835 24.0479C9.22217 25.4578 10.0723 26.7236 11.1568 27.8109C12.2413 28.8981 13.5039 29.7503 14.9104 30.3457C16.3668 30.9629 17.9107 31.2762 19.5047 31.2762C20.1985 31.2762 20.8924 31.2136 21.5737 31.0914C22.6207 31.6835 23.8021 32 25.0116 32C26.8775 32 28.6339 31.2731 29.9529 29.9477C31.2749 28.6255 32 26.8646 32 24.9941C32.0031 23.8035 31.6968 22.6285 31.1186 21.5883ZM19.5547 26.6923C15.3604 26.6923 13.4852 24.6244 13.4852 23.0766C13.4852 22.2807 14.0696 21.7262 14.876 21.7262C16.67 21.7262 16.2074 24.3111 19.5547 24.3111C21.2705 24.3111 22.2175 23.3774 22.2175 22.4217C22.2175 21.8484 21.9362 21.2092 20.8048 20.9303L17.0731 19.9966C14.0696 19.2415 13.5227 17.6122 13.5227 16.0832C13.5227 12.9061 16.5074 11.7124 19.3109 11.7124C21.8925 11.7124 24.9366 13.1443 24.9366 15.0493C24.9366 15.867 24.2303 16.3401 23.4239 16.3401C21.8925 16.3401 22.1738 14.2158 19.089 14.2158C17.5576 14.2158 16.7106 14.9114 16.7106 15.9046C16.7106 16.8979 17.9201 17.2143 18.9702 17.4556L21.7331 18.0697C24.7585 18.7465 25.5242 20.5167 25.5242 22.1836C25.5242 24.7623 23.5458 26.6923 19.5547 26.6923Z" fill="white"/>
</svg>
