<svg width="40" height="40" viewBox="0 0 40 40" fill="none" xmlns="http://www.w3.org/2000/svg">
<rect x="1" width="39" height="39" rx="19.5" fill="#7ECED5"/>
<path d="M5.82785 19.8055C5.76123 19.8055 5.7011 19.8673 5.69298 19.9388L5.37773 22.8589L5.69298 25.7124C5.7011 25.792 5.76123 25.8457 5.82785 25.8457C5.89448 25.8457 5.94973 25.792 5.96435 25.7124L6.30723 22.8589L5.9416 19.9388C5.9416 19.864 5.88148 19.8055 5.82135 19.8055H5.82785ZM4.6026 20.9284C4.51973 20.9284 4.4791 20.9772 4.4596 21.0568L4.23535 22.8589L4.4596 24.6334C4.4596 24.7082 4.51973 24.7602 4.58148 24.7602C4.64485 24.7602 4.7001 24.6984 4.72285 24.6188L5.00885 22.8313L4.72285 21.0243C4.72285 20.9414 4.66273 20.9008 4.60098 20.9008L4.6026 20.9284ZM7.08073 19.2352C6.99623 19.2352 6.91823 19.2985 6.91823 19.3765L6.63223 22.8524L6.93773 26.1853C6.93773 26.2649 6.99785 26.3478 7.0986 26.3478C7.1831 26.3478 7.24323 26.2649 7.26435 26.1853L7.60723 22.8313L7.26435 19.3765C7.24323 19.2969 7.17985 19.214 7.0986 19.214L7.08073 19.2352ZM8.38235 19.0922C8.27998 19.0922 8.1971 19.175 8.1776 19.2758L7.91598 22.8524L8.2036 26.3023C8.2231 26.4047 8.30273 26.4875 8.40185 26.4875C8.50585 26.4875 8.58548 26.4047 8.60498 26.286L8.9316 22.8524L8.60498 19.2985C8.60541 19.2747 8.60106 19.2509 8.59216 19.2288C8.58328 19.2066 8.57003 19.1864 8.55322 19.1694C8.5364 19.1525 8.51636 19.1391 8.49427 19.13C8.47218 19.1209 8.44849 19.1163 8.4246 19.1165L8.38235 19.0922ZM9.9456 19.5813C9.94498 19.5537 9.93886 19.5265 9.92762 19.5013C9.91637 19.4761 9.90022 19.4533 9.8801 19.4344C9.85999 19.4155 9.83631 19.4008 9.81045 19.3912C9.78459 19.3815 9.75706 19.3771 9.72948 19.3782C9.67334 19.3768 9.61883 19.3971 9.57735 19.435C9.53586 19.4728 9.51061 19.5253 9.50685 19.5813L9.2111 22.8735L9.48573 26.3478C9.48551 26.3759 9.49092 26.4038 9.50164 26.4299C9.51236 26.4559 9.52818 26.4795 9.54816 26.4994C9.56815 26.5192 9.59189 26.5348 9.61801 26.5454C9.64412 26.5559 9.67208 26.5611 9.70023 26.5607C9.80098 26.5607 9.9001 26.4713 9.9001 26.3462L10.2072 22.8703L9.9001 19.5618L9.9456 19.5813ZM11.0409 17.264C10.9773 17.2665 10.9171 17.2931 10.8724 17.3383C10.8277 17.3836 10.802 17.4442 10.8004 17.5078L10.5144 22.8703L10.7679 26.3462C10.7679 26.4713 10.8751 26.5688 11.0116 26.5688C11.1384 26.5688 11.2472 26.4485 11.2554 26.325L11.5381 22.8524L11.257 17.4688C11.2456 17.3258 11.1367 17.2218 11.0132 17.2218L11.0409 17.264ZM12.3132 15.9835C12.2428 15.9865 12.1759 16.015 12.125 16.0638C12.0742 16.1125 12.0429 16.1782 12.037 16.2484L11.7932 22.8508L12.0175 26.3039C12.0175 26.4664 12.1394 26.5867 12.2824 26.5867C12.4221 26.5867 12.544 26.4664 12.5651 26.3039L12.8284 22.8508L12.5667 16.2663C12.5456 16.1038 12.4237 15.9819 12.2824 15.9819L12.3132 15.9835ZM13.6246 15.3774C13.4589 15.3774 13.3386 15.496 13.3191 15.6585L13.0932 22.8085L13.3191 26.2243C13.3386 26.3868 13.4589 26.5298 13.6246 26.5298C13.7047 26.5273 13.7808 26.4943 13.8373 26.4375C13.8938 26.3807 13.9264 26.3044 13.9285 26.2243L14.1934 22.8085L13.9269 15.6585C13.9269 15.496 13.7855 15.353 13.6214 15.353L13.6246 15.3774ZM15.3081 15.4148C15.3088 15.3721 15.3008 15.3298 15.2848 15.2903C15.2688 15.2507 15.245 15.2148 15.2149 15.1847C15.1847 15.1545 15.1488 15.1307 15.1093 15.1147C15.0697 15.0987 15.0274 15.0908 14.9847 15.0914C14.8992 15.093 14.8175 15.1275 14.7567 15.1877C14.6959 15.2479 14.6606 15.3292 14.6581 15.4148L14.455 22.789L14.6565 26.1837C14.6809 26.364 14.8206 26.507 15.0042 26.507C15.1879 26.507 15.3309 26.364 15.3309 26.1837L15.5519 22.789L15.3309 15.3953L15.3081 15.4148ZM16.3237 15.2344C16.1401 15.2344 15.9776 15.3969 15.9776 15.5773L15.7745 22.7907L15.9776 26.143C15.9776 26.3462 16.1401 26.4892 16.3237 26.4892C16.4178 26.4862 16.507 26.4464 16.5721 26.3783C16.6371 26.3102 16.6728 26.2193 16.6715 26.1252L16.8746 22.7712L16.6471 15.5757C16.6471 15.3774 16.4846 15.21 16.2815 15.21L16.3237 15.2344ZM17.6432 15.4359C17.5926 15.4357 17.5424 15.4455 17.4956 15.4648C17.4488 15.4841 17.4062 15.5124 17.3704 15.5482C17.3346 15.584 17.3063 15.6266 17.287 15.6734C17.2677 15.7202 17.2579 15.7704 17.2581 15.821L17.1184 22.7923L17.302 26.1447C17.302 26.3462 17.4645 26.52 17.6855 26.52C17.8886 26.52 18.0544 26.3575 18.0706 26.1349L18.2347 22.8232L18.0527 15.8925C18.0365 15.6699 17.8691 15.5058 17.6676 15.5058L17.6432 15.4359ZM19.2731 14.2285C19.2046 14.1884 19.1266 14.1677 19.0472 14.1684C18.966 14.1684 18.8847 14.1895 18.8246 14.2285C18.7634 14.2638 18.7125 14.3145 18.6769 14.3755C18.6413 14.4364 18.6222 14.5057 18.6215 14.5763V14.6575L18.4817 22.854L18.6377 26.1739V26.1853C18.6475 26.2665 18.6767 26.3673 18.7352 26.429C18.8165 26.5119 18.9302 26.5688 19.0537 26.5688C19.1596 26.5631 19.2602 26.5205 19.3381 26.4485C19.378 26.4084 19.4094 26.3607 19.4306 26.3082C19.4518 26.2558 19.4623 26.1996 19.4616 26.143L19.4827 25.8164L19.6404 22.8297L19.4567 14.5828C19.4558 14.5182 19.4388 14.4548 19.4074 14.3983C19.3759 14.3419 19.3309 14.2941 19.2764 14.2594L19.2731 14.2285ZM20.6332 13.4859C20.6081 13.4576 20.577 13.4353 20.5421 13.4207C20.5072 13.406 20.4695 13.3995 20.4317 13.4014C20.3308 13.3977 20.2314 13.4274 20.149 13.4859C20.0996 13.5251 20.0595 13.5747 20.0314 13.6312C20.0034 13.6876 19.988 13.7495 19.9865 13.8125V13.8499L19.8012 22.8085L19.9036 24.4563L19.9881 26.0618C19.9907 26.1799 20.0401 26.2921 20.1254 26.3738C20.2107 26.4554 20.325 26.4999 20.4431 26.4973C20.5612 26.4947 20.6734 26.4453 20.7551 26.36C20.8368 26.2746 20.8812 26.1604 20.8786 26.0423L21.0817 22.7712L20.8786 13.7752C20.8768 13.6986 20.8552 13.6237 20.8159 13.5579C20.7766 13.4921 20.721 13.4377 20.6544 13.3998L20.6332 13.4859ZM32.7639 18.5185C32.2179 18.5185 31.6865 18.6355 31.2217 18.8322C31.1231 17.7427 30.7724 16.6911 30.1973 15.7605C29.6222 14.8299 28.8385 14.0458 27.9081 13.4703C26.9778 12.8948 25.9264 12.5436 24.8369 12.4445C23.7475 12.3454 22.6499 12.5011 21.631 12.8993C21.3255 13.0212 21.2621 13.1447 21.2442 13.3884V26.0829C21.2512 26.2016 21.2998 26.3139 21.3816 26.4002C21.4634 26.4864 21.573 26.5409 21.6911 26.5542H32.785C33.3075 26.5589 33.8257 26.4598 34.3096 26.2626C34.7935 26.0655 35.2334 25.7741 35.6038 25.4056C35.9742 25.037 36.2677 24.5985 36.4672 24.1156C36.6668 23.6327 36.7684 23.1149 36.7662 22.5924C36.7688 21.5338 36.3509 20.5175 35.6043 19.7669C34.8577 19.0164 33.8436 18.593 32.785 18.59" fill="white"/>
</svg>
