<svg width="40" height="40" viewBox="0 0 40 40" fill="none" xmlns="http://www.w3.org/2000/svg">
<g clip-path="url(#clip0)">
<path d="M20.0195 0.869629C9.48745 0.869629 0.870117 9.48696 0.870117 20.019C0.870117 30.5492 9.48745 39.1665 20.0195 39.1665C30.5497 39.1665 39.167 30.5492 39.167 20.019C39.167 9.48696 30.6455 0.869629 20.0195 0.869629ZM28.8266 28.5386C28.4452 29.1117 27.7744 29.3053 27.1975 28.9239C22.6952 26.1447 17.0468 25.5697 10.3442 27.1011C9.6772 27.2966 9.1022 26.8175 8.91053 26.2405C8.71695 25.5697 9.19612 24.9985 9.77303 24.805C17.0468 23.1758 23.368 23.8485 28.3455 26.9133C29.0164 27.1989 29.1122 27.9636 28.8266 28.5386ZM31.1266 23.2735C30.6455 23.9425 29.7849 24.23 29.1122 23.7508C23.9429 20.596 16.0942 19.6338 10.0625 21.5505C9.29962 21.744 8.43328 21.3588 8.24353 20.596C8.04995 19.8255 8.4352 18.963 9.19995 18.7713C16.1881 16.6668 24.8074 17.721 30.7414 21.3607C31.3164 21.6463 31.6039 22.6027 31.1266 23.2735ZM31.3164 17.9088C25.1888 14.2729 14.9442 13.8895 9.1022 15.7123C8.65793 15.8403 8.18141 15.7922 7.77165 15.5781C7.3619 15.3639 7.05039 15.0001 6.90187 14.5623C6.77157 14.1175 6.8183 13.6395 7.03227 13.2284C7.24624 12.8172 7.61089 12.5047 8.04995 12.3562C14.8484 10.3456 26.0513 10.727 33.1372 14.9456C33.9978 15.4229 34.2853 16.5729 33.8061 17.4335C33.3269 18.1043 32.1789 18.388 31.3164 17.9088Z" fill="#7ECED5"/>
</g>
<defs>
<clipPath id="clip0">
<rect width="40" height="40" fill="white"/>
</clipPath>
</defs>
</svg>
