<svg width="40" height="40" viewBox="0 0 40 40" fill="none" xmlns="http://www.w3.org/2000/svg">
<rect width="39" height="39" rx="19.5" fill="#7ECED5"/>
<path d="M28.1358 12.9189C27.9567 12.8386 27.7823 12.7507 27.6134 12.6554C27.122 12.3738 26.6716 12.0421 26.2716 11.6674C25.271 10.6751 24.8973 9.66838 24.7597 8.96356H24.7652C24.6502 8.37852 24.6977 8 24.7049 8H20.1474V23.2741C20.1474 23.4792 20.1474 23.6819 20.1374 23.8821C20.1374 23.9071 20.1347 23.9301 20.133 23.9569C20.133 23.9679 20.133 23.9794 20.1303 23.9909V23.9995C20.0822 24.5476 19.8795 25.077 19.54 25.5412C19.2005 26.0054 18.7346 26.3902 18.1832 26.6617C17.6085 26.945 16.9586 27.0936 16.2975 27.0929C14.1741 27.0929 12.4531 25.5922 12.4531 23.7389C12.4531 21.8856 14.1741 20.3849 16.2975 20.3849C16.6994 20.3846 17.0989 20.4394 17.4811 20.5473L17.4866 16.5254C16.3264 16.3955 15.1478 16.4754 14.025 16.7601C12.9022 17.0448 11.8597 17.528 10.9632 18.1794C10.1777 18.7709 9.51729 19.4768 9.01174 20.2651C8.81936 20.5526 8.09349 21.7078 8.00559 23.5827C7.95031 24.6469 8.31904 25.7494 8.49484 26.205V26.2146C8.60541 26.4829 9.03385 27.3986 9.73208 28.1705C10.2951 28.7897 10.9603 29.3336 11.7062 29.7847V29.7751L11.7173 29.7847C13.9236 31.0841 16.3699 30.9989 16.3699 30.9989C16.7934 30.984 18.2119 30.9989 19.8229 30.3372C21.6096 29.6036 22.6268 28.5107 22.6268 28.5107C23.2767 27.8576 23.7934 27.1134 24.1549 26.31C24.5673 25.3704 24.7049 24.2434 24.7049 23.793V15.6898C24.7602 15.7185 25.4966 16.1406 25.4966 16.1406C25.4966 16.1406 26.5575 16.73 28.2126 17.1138C29.4001 17.3869 31 17.4444 31 17.4444V13.5231C30.4394 13.5758 29.3012 13.4225 28.1358 12.9189Z" fill="white"/>
</svg>
