<svg width="40" height="40" viewBox="0 0 40 40" fill="none" xmlns="http://www.w3.org/2000/svg">
<rect x="1" width="39" height="39" rx="19.5" fill="#7ECED5"/>
<path d="M35 13.7129H30.8979C28.056 11.7786 24.5788 10.7998 20.5 10.7998C16.4212 10.7998 12.9426 11.7786 10.1021 13.7129H6C6.6206 14.3219 7.19915 15.6559 7.43985 16.6709C6.51014 17.9085 6.00511 19.4134 6 20.9614C6 24.9591 9.25235 28.2114 13.25 28.2114C15.099 28.2081 16.8759 27.4944 18.2134 26.2177L20.5 29.6498L22.7866 26.2191C24.1238 27.4963 25.9008 28.2107 27.75 28.2143C31.7477 28.2143 35 24.962 35 20.9643C35 19.3519 34.4534 17.8758 33.5602 16.6723C33.8008 15.6573 34.3794 14.3233 35 13.7143V13.7129ZM13.25 25.8929C10.5312 25.8929 8.32 23.6816 8.32 20.9629C8.32 18.2441 10.5312 16.0329 13.25 16.0329C15.9688 16.0329 18.18 18.2441 18.18 20.9629C18.18 23.6816 15.9688 25.8929 13.25 25.8929ZM20.5 20.9629C20.4975 19.2903 19.9178 17.6698 18.8586 16.3753C17.7995 15.0807 16.3259 14.1915 14.687 13.8579C16.4328 13.2706 18.3685 12.9748 20.5 12.9748C22.6315 12.9748 24.5673 13.2706 26.3131 13.8593C24.6746 14.1929 23.2014 15.0816 22.1423 16.3756C21.0832 17.6695 20.5031 19.2893 20.5 20.9614V20.9629ZM27.75 25.8929C25.0312 25.8929 22.82 23.6816 22.82 20.9629C22.82 18.2441 25.0312 16.0329 27.75 16.0329C30.4688 16.0329 32.68 18.2441 32.68 20.9629C32.68 23.6816 30.4688 25.8929 27.75 25.8929ZM13.25 17.8468C11.5318 17.8468 10.1325 19.2446 10.1325 20.9643C10.1325 22.684 11.5318 24.0818 13.25 24.0818C14.9683 24.0818 16.3675 22.684 16.3675 20.9643C16.3675 19.2446 14.9683 17.8468 13.25 17.8468ZM13.25 21.8938C13 21.8938 12.7603 21.7945 12.5836 21.6177C12.4068 21.441 12.3075 21.2012 12.3075 20.9513C12.3075 20.7013 12.4068 20.4616 12.5836 20.2848C12.7603 20.1081 13 20.0088 13.25 20.0088C13.5 20.0088 13.7397 20.1081 13.9164 20.2848C14.0932 20.4616 14.1925 20.7013 14.1925 20.9513C14.1925 21.2012 14.0932 21.441 13.9164 21.6177C13.7397 21.7945 13.5 21.8938 13.25 21.8938ZM27.75 17.8468C26.0318 17.8468 24.6325 19.2446 24.6325 20.9643C24.6325 22.684 26.0318 24.0818 27.75 24.0818C29.4683 24.0818 30.8675 22.684 30.8675 20.9643C30.8675 19.2446 29.4683 17.8468 27.75 17.8468ZM27.75 21.8938C27.5 21.8938 27.2603 21.7945 27.0836 21.6177C26.9068 21.441 26.8075 21.2012 26.8075 20.9513C26.8075 20.7013 26.9068 20.4616 27.0836 20.2848C27.2603 20.1081 27.5 20.0088 27.75 20.0088C28 20.0088 28.2397 20.1081 28.4164 20.2848C28.5932 20.4616 28.6925 20.7013 28.6925 20.9513C28.6925 21.2012 28.5932 21.441 28.4164 21.6177C28.2397 21.7945 28 21.8938 27.75 21.8938Z" fill="white"/>
</svg>
