<svg width="40" height="40" viewBox="0 0 40 40" fill="none" xmlns="http://www.w3.org/2000/svg">
<rect width="39" height="39" rx="19.5" fill="#7ECED5"/>
<path fill-rule="evenodd" clip-rule="evenodd" d="M30.1731 9.94166C28.9192 8.68717 27.4296 7.69308 25.79 7.01661C24.1503 6.34015 22.3931 5.99467 20.6194 6.00006C13.1758 6.00006 7.11625 12.0293 7.11322 19.4415C7.10993 21.8017 7.73207 24.1206 8.91631 26.1622L7 33.1251L14.1597 31.256C16.1415 32.3296 18.36 32.8915 20.614 32.8907H20.6194C28.0624 32.8907 34.1214 26.8609 34.125 19.4493C34.1295 17.6817 33.7824 15.9308 33.104 14.2986C32.4255 12.6663 31.4293 11.1853 30.1731 9.94166ZM20.6194 30.6221H20.6146C18.6053 30.6226 16.6325 30.0849 14.9014 29.0648L14.4915 28.8226L10.2429 29.9318L11.3769 25.8092L11.1099 25.3854C9.98641 23.6066 9.39115 21.5453 9.39342 19.4415C9.39342 13.282 14.4315 8.27057 20.6237 8.27057C23.5941 8.26527 26.445 9.44005 28.5493 11.5365C30.6536 13.633 31.839 16.4795 31.8448 19.4499C31.8424 25.61 26.8067 30.6221 20.6194 30.6221ZM26.7764 22.2551C26.4392 22.0868 24.7784 21.2742 24.4708 21.1622C24.1632 21.0502 23.9362 20.9939 23.7115 21.3305C23.4869 21.6672 22.8397 22.4204 22.6429 22.6474C22.4461 22.8745 22.2493 22.8993 21.9121 22.731C21.5748 22.5627 20.4868 22.2085 19.1978 21.0641C18.1945 20.1735 17.5176 19.0739 17.3208 18.7379C17.124 18.4019 17.2996 18.2196 17.4686 18.0525C17.6205 17.9018 17.8058 17.6602 17.9747 17.464C18.1437 17.2678 18.2 17.1274 18.312 16.9033C18.424 16.6793 18.3683 16.4831 18.2841 16.3154C18.2 16.1477 17.5249 14.4942 17.2439 13.8215C16.9696 13.1664 16.6917 13.2554 16.4847 13.2451C16.2879 13.2354 16.0608 13.233 15.8374 13.233C15.6666 13.2374 15.4986 13.277 15.3438 13.3493C15.189 13.4216 15.0507 13.5251 14.9377 13.6532C14.6283 13.9898 13.7564 14.8036 13.7564 16.4553C13.7564 18.107 14.9674 19.7055 15.1345 19.9295C15.3016 20.1535 17.514 23.5459 20.8991 25.0009C21.5277 25.2701 22.17 25.5061 22.8233 25.7081C23.6316 25.9636 24.3673 25.9279 24.9485 25.8413C25.597 25.745 26.9466 25.0287 27.2269 24.244C27.5072 23.4594 27.5078 22.7873 27.4237 22.6474C27.3395 22.5076 27.1143 22.4228 26.7764 22.2551Z" fill="white"/>
</svg>
